# Blender 4.0.2
# www.blender.org
mtllib Wall.mtl
o Cube.002
v 1.000000 -2.005954 0.519480
v 1.000000 2.443117 0.519480
v -1.000000 -2.005954 0.519480
v -1.000000 2.443117 0.519480
v 1.000000 -2.005954 -0.519480
v 1.000000 2.443117 -0.519480
v -1.000000 -2.005954 -0.519480
v -1.000000 2.443117 -0.519480
vn -0.0000 -0.0000 1.0000
vn -1.0000 -0.0000 -0.0000
vn -0.0000 -0.0000 -1.0000
vn 1.0000 -0.0000 -0.0000
vn -0.0000 -1.0000 -0.0000
vn -0.0000 1.0000 -0.0000
vt 0.375000 0.000000
vt 0.625000 0.000000
vt 0.625000 0.250000
vt 0.375000 0.250000
vt 0.625000 0.500000
vt 0.375000 0.500000
vt 0.625000 0.750000
vt 0.375000 0.750000
vt 0.625000 1.000000
vt 0.375000 1.000000
vt 0.125000 0.500000
vt 0.125000 0.750000
vt 0.875000 0.500000
vt 0.875000 0.750000
s 0
usemtl Material
f 1/1/1 2/2/1 4/3/1 3/4/1
f 3/4/2 4/3/2 8/5/2 7/6/2
f 7/6/3 8/5/3 6/7/3 5/8/3
f 5/8/4 6/7/4 2/9/4 1/10/4
f 3/11/5 7/6/5 5/8/5 1/12/5
f 8/5/6 4/13/6 2/14/6 6/7/6
o Cube.001
v 1.000000 -1.986981 0.457237
v 1.000000 -1.714733 0.457237
v 0.743981 -1.986981 0.457237
v 0.743981 -1.714733 0.457237
v 1.000000 -1.986981 -0.457237
v 1.000000 -1.714733 -0.457237
v 0.743981 -1.986981 -0.457237
v 0.743981 -1.714733 -0.457237
v 0.684941 -1.986981 0.457237
v 0.684941 -1.619144 0.457237
v 0.094541 -1.986981 0.457237
v 0.094541 -1.619144 0.457237
v 0.684941 -1.986981 -0.457237
v 0.684941 -1.619144 -0.457237
v 0.094541 -1.986981 -0.457237
v 0.094541 -1.619144 -0.457237
v 0.035501 -1.986981 0.457237
v 0.035501 -1.619144 0.457237
v -0.554899 -1.986981 0.457237
v -0.554899 -1.619144 0.457237
v 0.035501 -1.986981 -0.457237
v 0.035501 -1.619144 -0.457237
v -0.554899 -1.986981 -0.457237
v -0.554899 -1.619144 -0.457237
v -0.613939 -1.986981 0.457237
v -0.613939 -1.714733 0.457237
v -1.000000 -1.986981 0.457237
v -1.000000 -1.714733 0.457237
v -0.613939 -1.986981 -0.457237
v -0.613939 -1.714733 -0.457237
v -1.000000 -1.986981 -0.457237
v -1.000000 -1.714733 -0.457237
v 1.000000 -1.545577 0.638001
v 1.000000 -1.177740 0.638001
v 0.490109 -1.545577 0.638001
v 0.490109 -1.177740 0.638001
v 1.000000 -1.545577 -0.638001
v 1.000000 -1.177740 -0.638001
v 0.490109 -1.545577 -0.638001
v 0.490109 -1.177740 -0.638001
v 0.431069 -1.545577 0.638001
v 0.431069 -1.177740 0.638001
v -0.159331 -1.545577 0.638001
v -0.159331 -1.177740 0.638001
v 0.431069 -1.545577 -0.638001
v 0.431069 -1.177740 -0.638001
v -0.159331 -1.545577 -0.638001
v -0.159331 -1.177740 -0.638001
v -0.218371 -1.545577 0.638001
v -0.218371 -1.177740 0.638001
v -0.808771 -1.545577 0.638001
v -0.808771 -1.177740 0.638001
v -0.218371 -1.545577 -0.638001
v -0.218371 -1.177740 -0.638001
v -0.808771 -1.545577 -0.638001
v -0.808771 -1.177740 -0.638001
v -0.867811 -1.545577 0.638001
v -0.867811 -1.177740 0.638001
v -1.000000 -1.545577 0.638001
v -1.000000 -1.177740 0.638001
v -0.867811 -1.545577 -0.638001
v -0.867811 -1.177740 -0.638001
v -1.000000 -1.545577 -0.638001
v -1.000000 -1.177740 -0.638001
v 1.000000 -1.096816 0.638001
v 1.000000 -0.728979 0.638001
v 0.743981 -1.096816 0.638001
v 0.743981 -0.728979 0.638001
v 1.000000 -1.096816 -0.638001
v 1.000000 -0.728979 -0.638001
v 0.743981 -1.096816 -0.638001
v 0.743981 -0.728979 -0.638001
v 0.684941 -1.096816 0.638001
v 0.684941 -0.728979 0.638001
v 0.094541 -1.096816 0.638001
v 0.094541 -0.728979 0.638001
v 0.684941 -1.096816 -0.638001
v 0.684941 -0.728979 -0.638001
v 0.094541 -1.096816 -0.638001
v 0.094541 -0.728979 -0.638001
v 0.035501 -1.096816 0.638001
v 0.035501 -0.728979 0.638001
v -0.554899 -1.096816 0.638001
v -0.554899 -0.728979 0.638001
v 0.035501 -1.096816 -0.638001
v 0.035501 -0.728979 -0.638001
v -0.554899 -1.096816 -0.638001
v -0.554899 -0.728979 -0.638001
v -0.613939 -1.096816 0.638001
v -0.613939 -0.728979 0.638001
v -1.000000 -1.096816 0.638001
v -1.000000 -0.728979 0.638001
v -0.613939 -1.096816 -0.638001
v -0.613939 -0.728979 -0.638001
v -1.000000 -1.096816 -0.638001
v -1.000000 -0.728979 -0.638001
v 1.000000 -0.655412 0.638001
v 1.000000 -0.287575 0.638001
v 0.490109 -0.655412 0.638001
v 0.490109 -0.287575 0.638001
v 1.000000 -0.655412 -0.638001
v 1.000000 -0.287575 -0.638001
v 0.490109 -0.655412 -0.638001
v 0.490109 -0.287575 -0.638001
v 0.431069 -0.655412 0.638001
v 0.431069 -0.287575 0.638001
v -0.159331 -0.655412 0.638001
v -0.159331 -0.287575 0.638001
v 0.431069 -0.655412 -0.638001
v 0.431069 -0.287575 -0.638001
v -0.159331 -0.655412 -0.638001
v -0.159331 -0.287575 -0.638001
v -0.218371 -0.655412 0.638001
v -0.218371 -0.287575 0.638001
v -0.808771 -0.655412 0.638001
v -0.808771 -0.287575 0.638001
v -0.218371 -0.655412 -0.638001
v -0.218371 -0.287575 -0.638001
v -0.808771 -0.655412 -0.638001
v -0.808771 -0.287575 -0.638001
v -0.867811 -0.655412 0.638001
v -0.867811 -0.287575 0.638001
v -1.000000 -0.655412 0.638001
v -1.000000 -0.287575 0.638001
v -0.867811 -0.655412 -0.638001
v -0.867811 -0.287575 -0.638001
v -1.000000 -0.655412 -0.638001
v -1.000000 -0.287575 -0.638001
v 1.000000 -0.206651 0.638001
v 1.000000 0.161186 0.638001
v 0.743981 -0.206651 0.638001
v 0.743981 0.161186 0.638001
v 1.000000 -0.206651 -0.638001
v 1.000000 0.161186 -0.638001
v 0.743981 -0.206651 -0.638001
v 0.743981 0.161186 -0.638001
v 0.684941 -0.206651 0.638001
v 0.684941 0.161186 0.638001
v 0.094541 -0.206651 0.638001
v 0.094541 0.161186 0.638001
v 0.684941 -0.206651 -0.638001
v 0.684941 0.161186 -0.638001
v 0.094541 -0.206651 -0.638001
v 0.094541 0.161186 -0.638001
v 0.035501 -0.206651 0.638001
v 0.035501 0.161186 0.638001
v -0.554899 -0.206651 0.638001
v -0.554899 0.161186 0.638001
v 0.035501 -0.206651 -0.638001
v 0.035501 0.161186 -0.638001
v -0.554899 -0.206651 -0.638001
v -0.554899 0.161186 -0.638001
v -0.613939 -0.206651 0.638001
v -0.613939 0.161186 0.638001
v -1.000000 -0.206651 0.638001
v -1.000000 0.161186 0.638001
v -0.613939 -0.206651 -0.638001
v -0.613939 0.161186 -0.638001
v -1.000000 -0.206651 -0.638001
v -1.000000 0.161186 -0.638001
v 1.000000 0.234753 0.638001
v 1.000000 0.602590 0.638001
v 0.490109 0.234753 0.638001
v 0.490109 0.602590 0.638001
v 1.000000 0.234753 -0.638001
v 1.000000 0.602590 -0.638001
v 0.490109 0.234753 -0.638001
v 0.490109 0.602590 -0.638001
v 0.431069 0.234753 0.638001
v 0.431069 0.602590 0.638001
v -0.159331 0.234753 0.638001
v -0.159331 0.602590 0.638001
v 0.431069 0.234753 -0.638001
v 0.431069 0.602590 -0.638001
v -0.159331 0.234753 -0.638001
v -0.159331 0.602590 -0.638001
v -0.218371 0.234753 0.638001
v -0.218371 0.602590 0.638001
v -0.808771 0.234753 0.638001
v -0.808771 0.602590 0.638001
v -0.218371 0.234753 -0.638001
v -0.218371 0.602590 -0.638001
v -0.808771 0.234753 -0.638001
v -0.808771 0.602590 -0.638001
v -0.867811 0.234753 0.638001
v -0.867811 0.602590 0.638001
v -1.000000 0.234753 0.638001
v -1.000000 0.602590 0.638001
v -0.867811 0.234753 -0.638001
v -0.867811 0.602590 -0.638001
v -1.000000 0.234753 -0.638001
v -1.000000 0.602590 -0.638001
v 1.000000 0.683514 0.638001
v 1.000000 1.051351 0.638001
v 0.743981 0.683514 0.638001
v 0.743981 1.051351 0.638001
v 1.000000 0.683514 -0.638001
v 1.000000 1.051351 -0.638001
v 0.743981 0.683514 -0.638001
v 0.743981 1.051351 -0.638001
v 0.684941 0.683514 0.638001
v 0.684941 1.051351 0.638001
v 0.094541 0.683514 0.638001
v 0.094541 1.051351 0.638001
v 0.684941 0.683514 -0.638001
v 0.684941 1.051351 -0.638001
v 0.094541 0.683514 -0.638001
v 0.094541 1.051351 -0.638001
v 0.035501 0.683514 0.638001
v 0.035501 1.051351 0.638001
v -0.554899 0.683514 0.638001
v -0.554899 1.051351 0.638001
v 0.035501 0.683514 -0.638001
v 0.035501 1.051351 -0.638001
v -0.554899 0.683514 -0.638001
v -0.554899 1.051351 -0.638001
v -0.613939 0.683514 0.638001
v -0.613939 1.051351 0.638001
v -1.000000 0.683514 0.638001
v -1.000000 1.051351 0.638001
v -0.613939 0.683514 -0.638001
v -0.613939 1.051351 -0.638001
v -1.000000 0.683514 -0.638001
v -1.000000 1.051351 -0.638001
v 1.000000 1.124918 0.638001
v 1.000000 1.492755 0.638001
v 0.490109 1.124918 0.638001
v 0.490109 1.492755 0.638001
v 1.000000 1.124918 -0.638001
v 1.000000 1.492755 -0.638001
v 0.490109 1.124918 -0.638001
v 0.490109 1.492755 -0.638001
v 0.431069 1.124918 0.638001
v 0.431069 1.492755 0.638001
v -0.159331 1.124918 0.638001
v -0.159331 1.492755 0.638001
v 0.431069 1.124918 -0.638001
v 0.431069 1.492755 -0.638001
v -0.159331 1.124918 -0.638001
v -0.159331 1.492755 -0.638001
v -0.218371 1.124918 0.638001
v -0.218371 1.492755 0.638001
v -0.808771 1.124918 0.638001
v -0.808771 1.492755 0.638001
v -0.218371 1.124918 -0.638001
v -0.218371 1.492755 -0.638001
v -0.808771 1.124918 -0.638001
v -0.808771 1.492755 -0.638001
v -0.867811 1.124918 0.638001
v -0.867811 1.492755 0.638001
v -1.000000 1.124918 0.638001
v -1.000000 1.492755 0.638001
v -0.867811 1.124918 -0.638001
v -0.867811 1.492755 -0.638001
v -1.000000 1.124918 -0.638001
v -1.000000 1.492755 -0.638001
v 1.000000 1.573679 0.638001
v 1.000000 1.941516 0.638001
v 0.743981 1.573679 0.638001
v 0.743981 1.941516 0.638001
v 1.000000 1.573679 -0.638001
v 1.000000 1.941516 -0.638001
v 0.743981 1.573679 -0.638001
v 0.743981 1.941516 -0.638001
v 0.684941 1.573679 0.638001
v 0.684941 1.941516 0.638001
v 0.094541 1.573679 0.638001
v 0.094541 1.941516 0.638001
v 0.684941 1.573679 -0.638001
v 0.684941 1.941516 -0.638001
v 0.094541 1.573679 -0.638001
v 0.094541 1.941516 -0.638001
v 0.035501 1.573679 0.638001
v 0.035501 1.941516 0.638001
v -0.554899 1.573679 0.638001
v -0.554899 1.941516 0.638001
v 0.035501 1.573679 -0.638001
v 0.035501 1.941516 -0.638001
v -0.554899 1.573679 -0.638001
v -0.554899 1.941516 -0.638001
v -0.613939 1.573679 0.638001
v -0.613939 1.941516 0.638001
v -1.000000 1.573679 0.638001
v -1.000000 1.941516 0.638001
v -0.613939 1.573679 -0.638001
v -0.613939 1.941516 -0.638001
v -1.000000 1.573679 -0.638001
v -1.000000 1.941516 -0.638001
v 1.000000 2.015083 0.638001
v 1.000000 2.382920 0.638001
v 0.490109 2.015083 0.638001
v 0.490109 2.382920 0.638001
v 1.000000 2.015083 -0.638001
v 1.000000 2.382920 -0.638001
v 0.490109 2.015083 -0.638001
v 0.490109 2.382920 -0.638001
v 0.431069 2.015083 0.638001
v 0.431069 2.382920 0.638001
v -0.159331 2.015083 0.638001
v -0.159331 2.382920 0.638001
v 0.431069 2.015083 -0.638001
v 0.431069 2.382920 -0.638001
v -0.159331 2.015083 -0.638001
v -0.159331 2.382920 -0.638001
v -0.218371 2.015083 0.638001
v -0.218371 2.382920 0.638001
v -0.808771 2.015083 0.638001
v -0.808771 2.382920 0.638001
v -0.218371 2.015083 -0.638001
v -0.218371 2.382920 -0.638001
v -0.808771 2.015083 -0.638001
v -0.808771 2.382920 -0.638001
v -0.867811 2.015083 0.638001
v -0.867811 2.382920 0.638001
v -1.000000 2.015083 0.638001
v -1.000000 2.382920 0.638001
v -0.867811 2.015083 -0.638001
v -0.867811 2.382920 -0.638001
v -1.000000 2.015083 -0.638001
v -1.000000 2.382920 -0.638001
v 1.000000 -2.025125 0.664567
v -1.000000 -2.025125 0.664567
v 1.000000 -2.025125 -0.664567
v -1.000000 -2.025125 -0.664567
v -1.000000 -2.025125 0.517082
v -1.000000 -2.025125 -0.517082
v -1.000000 -1.658344 -0.517082
v -1.000000 -1.658344 0.517082
v 1.000000 -2.025125 -0.517082
v 1.000000 -2.025125 0.517082
v 1.000000 -1.658344 0.517082
v 1.000000 -1.658344 -0.517082
v 1.000000 -1.658344 0.576076
v 1.000000 -1.878412 0.664567
v 1.000000 -1.722800 0.638648
v -1.000000 -1.878412 0.664567
v -1.000000 -1.658344 0.576076
v -1.000000 -1.722800 0.638648
v 1.000000 -1.878412 -0.664567
v 1.000000 -1.658344 -0.576076
v 1.000000 -1.722800 -0.638648
v -1.000000 -1.658344 -0.576076
v -1.000000 -1.878412 -0.664567
v -1.000000 -1.722800 -0.638648
vn -0.0000 -0.0000 1.0000
vn -1.0000 -0.0000 -0.0000
vn -0.0000 -0.0000 -1.0000
vn 1.0000 -0.0000 -0.0000
vn -0.0000 -1.0000 -0.0000
vn -0.0000 1.0000 -0.0000
vn -0.0000 0.6965 0.7175
vn -0.0000 0.1643 0.9864
vn -0.0000 0.6965 -0.7175
vn -0.0000 0.1643 -0.9864
vt 0.375000 0.000000
vt 0.625000 0.000000
vt 0.625000 0.250000
vt 0.375000 0.250000
vt 0.625000 0.500000
vt 0.375000 0.500000
vt 0.625000 0.750000
vt 0.375000 0.750000
vt 0.625000 1.000000
vt 0.375000 1.000000
vt 0.125000 0.500000
vt 0.125000 0.750000
vt 0.875000 0.500000
vt 0.875000 0.750000
vt 0.847259 0.500000
vt 0.858356 0.500000
vt 0.858356 0.750000
vt 0.847259 0.750000
vt 0.375000 0.472259
vt 0.625000 0.472259
vt 0.625000 0.483356
vt 0.581066 0.495125
vt 0.475000 0.500000
vt 0.475000 0.750000
vt 0.581066 0.754875
vt 0.625000 0.766644
vt 0.625000 0.777741
vt 0.375000 0.777741
vt 0.152741 0.500000
vt 0.152741 0.750000
vt 0.641644 0.500000
vt 0.652741 0.500000
vt 0.652741 0.750000
vt 0.641645 0.750000
vt 0.475000 0.250000
vt 0.581066 0.254875
vt 0.625000 0.266645
vt 0.625000 0.277741
vt 0.375000 0.277741
vt 0.475000 0.000000
vt 0.347259 0.500000
vt 0.347259 0.750000
vt 0.625000 0.972259
vt 0.375000 0.972259
vt 0.625000 0.983356
vt 0.581066 0.995125
vt 0.475000 1.000000
s 0
usemtl Material.001
f 9/15/7 10/16/7 12/17/7 11/18/7
f 11/18/8 12/17/8 16/19/8 15/20/8
f 15/20/9 16/19/9 14/21/9 13/22/9
f 13/22/10 14/21/10 10/23/10 9/24/10
f 11/25/11 15/20/11 13/22/11 9/26/11
f 16/19/12 12/27/12 10/28/12 14/21/12
f 17/15/7 18/16/7 20/17/7 19/18/7
f 19/18/8 20/17/8 24/19/8 23/20/8
f 23/20/9 24/19/9 22/21/9 21/22/9
f 21/22/10 22/21/10 18/23/10 17/24/10
f 19/25/11 23/20/11 21/22/11 17/26/11
f 24/19/12 20/27/12 18/28/12 22/21/12
f 25/15/7 26/16/7 28/17/7 27/18/7
f 27/18/8 28/17/8 32/19/8 31/20/8
f 31/20/9 32/19/9 30/21/9 29/22/9
f 29/22/10 30/21/10 26/23/10 25/24/10
f 27/25/11 31/20/11 29/22/11 25/26/11
f 32/19/12 28/27/12 26/28/12 30/21/12
f 33/15/7 34/16/7 36/17/7 35/18/7
f 35/18/8 36/17/8 40/19/8 39/20/8
f 39/20/9 40/19/9 38/21/9 37/22/9
f 37/22/10 38/21/10 34/23/10 33/24/10
f 35/25/11 39/20/11 37/22/11 33/26/11
f 40/19/12 36/27/12 34/28/12 38/21/12
f 41/15/7 42/16/7 44/17/7 43/18/7
f 43/18/8 44/17/8 48/19/8 47/20/8
f 47/20/9 48/19/9 46/21/9 45/22/9
f 45/22/10 46/21/10 42/23/10 41/24/10
f 43/25/11 47/20/11 45/22/11 41/26/11
f 48/19/12 44/27/12 42/28/12 46/21/12
f 49/15/7 50/16/7 52/17/7 51/18/7
f 51/18/8 52/17/8 56/19/8 55/20/8
f 55/20/9 56/19/9 54/21/9 53/22/9
f 53/22/10 54/21/10 50/23/10 49/24/10
f 51/25/11 55/20/11 53/22/11 49/26/11
f 56/19/12 52/27/12 50/28/12 54/21/12
f 57/15/7 58/16/7 60/17/7 59/18/7
f 59/18/8 60/17/8 64/19/8 63/20/8
f 63/20/9 64/19/9 62/21/9 61/22/9
f 61/22/10 62/21/10 58/23/10 57/24/10
f 59/25/11 63/20/11 61/22/11 57/26/11
f 64/19/12 60/27/12 58/28/12 62/21/12
f 65/15/7 66/16/7 68/17/7 67/18/7
f 67/18/8 68/17/8 72/19/8 71/20/8
f 71/20/9 72/19/9 70/21/9 69/22/9
f 69/22/10 70/21/10 66/23/10 65/24/10
f 67/25/11 71/20/11 69/22/11 65/26/11
f 72/19/12 68/27/12 66/28/12 70/21/12
f 73/15/7 74/16/7 76/17/7 75/18/7
f 75/18/8 76/17/8 80/19/8 79/20/8
f 79/20/9 80/19/9 78/21/9 77/22/9
f 77/22/10 78/21/10 74/23/10 73/24/10
f 75/25/11 79/20/11 77/22/11 73/26/11
f 80/19/12 76/27/12 74/28/12 78/21/12
f 81/15/7 82/16/7 84/17/7 83/18/7
f 83/18/8 84/17/8 88/19/8 87/20/8
f 87/20/9 88/19/9 86/21/9 85/22/9
f 85/22/10 86/21/10 82/23/10 81/24/10
f 83/25/11 87/20/11 85/22/11 81/26/11
f 88/19/12 84/27/12 82/28/12 86/21/12
f 89/15/7 90/16/7 92/17/7 91/18/7
f 91/18/8 92/17/8 96/19/8 95/20/8
f 95/20/9 96/19/9 94/21/9 93/22/9
f 93/22/10 94/21/10 90/23/10 89/24/10
f 91/25/11 95/20/11 93/22/11 89/26/11
f 96/19/12 92/27/12 90/28/12 94/21/12
f 97/15/7 98/16/7 100/17/7 99/18/7
f 99/18/8 100/17/8 104/19/8 103/20/8
f 103/20/9 104/19/9 102/21/9 101/22/9
f 101/22/10 102/21/10 98/23/10 97/24/10
f 99/25/11 103/20/11 101/22/11 97/26/11
f 104/19/12 100/27/12 98/28/12 102/21/12
f 105/15/7 106/16/7 108/17/7 107/18/7
f 107/18/8 108/17/8 112/19/8 111/20/8
f 111/20/9 112/19/9 110/21/9 109/22/9
f 109/22/10 110/21/10 106/23/10 105/24/10
f 107/25/11 111/20/11 109/22/11 105/26/11
f 112/19/12 108/27/12 106/28/12 110/21/12
f 113/15/7 114/16/7 116/17/7 115/18/7
f 115/18/8 116/17/8 120/19/8 119/20/8
f 119/20/9 120/19/9 118/21/9 117/22/9
f 117/22/10 118/21/10 114/23/10 113/24/10
f 115/25/11 119/20/11 117/22/11 113/26/11
f 120/19/12 116/27/12 114/28/12 118/21/12
f 121/15/7 122/16/7 124/17/7 123/18/7
f 123/18/8 124/17/8 128/19/8 127/20/8
f 127/20/9 128/19/9 126/21/9 125/22/9
f 125/22/10 126/21/10 122/23/10 121/24/10
f 123/25/11 127/20/11 125/22/11 121/26/11
f 128/19/12 124/27/12 122/28/12 126/21/12
f 129/15/7 130/16/7 132/17/7 131/18/7
f 131/18/8 132/17/8 136/19/8 135/20/8
f 135/20/9 136/19/9 134/21/9 133/22/9
f 133/22/10 134/21/10 130/23/10 129/24/10
f 131/25/11 135/20/11 133/22/11 129/26/11
f 136/19/12 132/27/12 130/28/12 134/21/12
f 137/15/7 138/16/7 140/17/7 139/18/7
f 139/18/8 140/17/8 144/19/8 143/20/8
f 143/20/9 144/19/9 142/21/9 141/22/9
f 141/22/10 142/21/10 138/23/10 137/24/10
f 139/25/11 143/20/11 141/22/11 137/26/11
f 144/19/12 140/27/12 138/28/12 142/21/12
f 145/15/7 146/16/7 148/17/7 147/18/7
f 147/18/8 148/17/8 152/19/8 151/20/8
f 151/20/9 152/19/9 150/21/9 149/22/9
f 149/22/10 150/21/10 146/23/10 145/24/10
f 147/25/11 151/20/11 149/22/11 145/26/11
f 152/19/12 148/27/12 146/28/12 150/21/12
f 153/15/7 154/16/7 156/17/7 155/18/7
f 155/18/8 156/17/8 160/19/8 159/20/8
f 159/20/9 160/19/9 158/21/9 157/22/9
f 157/22/10 158/21/10 154/23/10 153/24/10
f 155/25/11 159/20/11 157/22/11 153/26/11
f 160/19/12 156/27/12 154/28/12 158/21/12
f 161/15/7 162/16/7 164/17/7 163/18/7
f 163/18/8 164/17/8 168/19/8 167/20/8
f 167/20/9 168/19/9 166/21/9 165/22/9
f 165/22/10 166/21/10 162/23/10 161/24/10
f 163/25/11 167/20/11 165/22/11 161/26/11
f 168/19/12 164/27/12 162/28/12 166/21/12
f 169/15/7 170/16/7 172/17/7 171/18/7
f 171/18/8 172/17/8 176/19/8 175/20/8
f 175/20/9 176/19/9 174/21/9 173/22/9
f 173/22/10 174/21/10 170/23/10 169/24/10
f 171/25/11 175/20/11 173/22/11 169/26/11
f 176/19/12 172/27/12 170/28/12 174/21/12
f 177/15/7 178/16/7 180/17/7 179/18/7
f 179/18/8 180/17/8 184/19/8 183/20/8
f 183/20/9 184/19/9 182/21/9 181/22/9
f 181/22/10 182/21/10 178/23/10 177/24/10
f 179/25/11 183/20/11 181/22/11 177/26/11
f 184/19/12 180/27/12 178/28/12 182/21/12
f 185/15/7 186/16/7 188/17/7 187/18/7
f 187/18/8 188/17/8 192/19/8 191/20/8
f 191/20/9 192/19/9 190/21/9 189/22/9
f 189/22/10 190/21/10 186/23/10 185/24/10
f 187/25/11 191/20/11 189/22/11 185/26/11
f 192/19/12 188/27/12 186/28/12 190/21/12
f 193/15/7 194/16/7 196/17/7 195/18/7
f 195/18/8 196/17/8 200/19/8 199/20/8
f 199/20/9 200/19/9 198/21/9 197/22/9
f 197/22/10 198/21/10 194/23/10 193/24/10
f 195/25/11 199/20/11 197/22/11 193/26/11
f 200/19/12 196/27/12 194/28/12 198/21/12
f 201/15/7 202/16/7 204/17/7 203/18/7
f 203/18/8 204/17/8 208/19/8 207/20/8
f 207/20/9 208/19/9 206/21/9 205/22/9
f 205/22/10 206/21/10 202/23/10 201/24/10
f 203/25/11 207/20/11 205/22/11 201/26/11
f 208/19/12 204/27/12 202/28/12 206/21/12
f 209/15/7 210/16/7 212/17/7 211/18/7
f 211/18/8 212/17/8 216/19/8 215/20/8
f 215/20/9 216/19/9 214/21/9 213/22/9
f 213/22/10 214/21/10 210/23/10 209/24/10
f 211/25/11 215/20/11 213/22/11 209/26/11
f 216/19/12 212/27/12 210/28/12 214/21/12
f 217/15/7 218/16/7 220/17/7 219/18/7
f 219/18/8 220/17/8 224/19/8 223/20/8
f 223/20/9 224/19/9 222/21/9 221/22/9
f 221/22/10 222/21/10 218/23/10 217/24/10
f 219/25/11 223/20/11 221/22/11 217/26/11
f 224/19/12 220/27/12 218/28/12 222/21/12
f 225/15/7 226/16/7 228/17/7 227/18/7
f 227/18/8 228/17/8 232/19/8 231/20/8
f 231/20/9 232/19/9 230/21/9 229/22/9
f 229/22/10 230/21/10 226/23/10 225/24/10
f 227/25/11 231/20/11 229/22/11 225/26/11
f 232/19/12 228/27/12 226/28/12 230/21/12
f 233/15/7 234/16/7 236/17/7 235/18/7
f 235/18/8 236/17/8 240/19/8 239/20/8
f 239/20/9 240/19/9 238/21/9 237/22/9
f 237/22/10 238/21/10 234/23/10 233/24/10
f 235/25/11 239/20/11 237/22/11 233/26/11
f 240/19/12 236/27/12 234/28/12 238/21/12
f 241/15/7 242/16/7 244/17/7 243/18/7
f 243/18/8 244/17/8 248/19/8 247/20/8
f 247/20/9 248/19/9 246/21/9 245/22/9
f 245/22/10 246/21/10 242/23/10 241/24/10
f 243/25/11 247/20/11 245/22/11 241/26/11
f 248/19/12 244/27/12 242/28/12 246/21/12
f 249/15/7 250/16/7 252/17/7 251/18/7
f 251/18/8 252/17/8 256/19/8 255/20/8
f 255/20/9 256/19/9 254/21/9 253/22/9
f 253/22/10 254/21/10 250/23/10 249/24/10
f 251/25/11 255/20/11 253/22/11 249/26/11
f 256/19/12 252/27/12 250/28/12 254/21/12
f 257/15/7 258/16/7 260/17/7 259/18/7
f 259/18/8 260/17/8 264/19/8 263/20/8
f 263/20/9 264/19/9 262/21/9 261/22/9
f 261/22/10 262/21/10 258/23/10 257/24/10
f 259/25/11 263/20/11 261/22/11 257/26/11
f 264/19/12 260/27/12 258/28/12 262/21/12
f 265/15/7 266/16/7 268/17/7 267/18/7
f 267/18/8 268/17/8 272/19/8 271/20/8
f 271/20/9 272/19/9 270/21/9 269/22/9
f 269/22/10 270/21/10 266/23/10 265/24/10
f 267/25/11 271/20/11 269/22/11 265/26/11
f 272/19/12 268/27/12 266/28/12 270/21/12
f 273/15/7 274/16/7 276/17/7 275/18/7
f 275/18/8 276/17/8 280/19/8 279/20/8
f 279/20/9 280/19/9 278/21/9 277/22/9
f 277/22/10 278/21/10 274/23/10 273/24/10
f 275/25/11 279/20/11 277/22/11 273/26/11
f 280/19/12 276/27/12 274/28/12 278/21/12
f 281/15/7 282/16/7 284/17/7 283/18/7
f 283/18/8 284/17/8 288/19/8 287/20/8
f 287/20/9 288/19/9 286/21/9 285/22/9
f 285/22/10 286/21/10 282/23/10 281/24/10
f 283/25/11 287/20/11 285/22/11 281/26/11
f 288/19/12 284/27/12 282/28/12 286/21/12
f 289/15/7 290/16/7 292/17/7 291/18/7
f 291/18/8 292/17/8 296/19/8 295/20/8
f 295/20/9 296/19/9 294/21/9 293/22/9
f 293/22/10 294/21/10 290/23/10 289/24/10
f 291/25/11 295/20/11 293/22/11 289/26/11
f 296/19/12 292/27/12 290/28/12 294/21/12
f 297/15/7 298/16/7 300/17/7 299/18/7
f 299/18/8 300/17/8 304/19/8 303/20/8
f 303/20/9 304/19/9 302/21/9 301/22/9
f 301/22/10 302/21/10 298/23/10 297/24/10
f 299/25/11 303/20/11 301/22/11 297/26/11
f 304/19/12 300/27/12 298/28/12 302/21/12
f 305/15/7 306/16/7 308/17/7 307/18/7
f 307/18/8 308/17/8 312/19/8 311/20/8
f 311/20/9 312/19/9 310/21/9 309/22/9
f 309/22/10 310/21/10 306/23/10 305/24/10
f 307/25/11 311/20/11 309/22/11 305/26/11
f 312/19/12 308/27/12 306/28/12 310/21/12
f 313/15/7 314/16/7 316/17/7 315/18/7
f 315/18/8 316/17/8 320/19/8 319/20/8
f 319/20/9 320/19/9 318/21/9 317/22/9
f 317/22/10 318/21/10 314/23/10 313/24/10
f 315/25/11 319/20/11 317/22/11 313/26/11
f 320/19/12 316/27/12 314/28/12 318/21/12
f 321/15/7 322/16/7 324/17/7 323/18/7
f 323/18/8 324/17/8 328/19/8 327/20/8
f 327/20/9 328/19/9 326/21/9 325/22/9
f 325/22/10 326/21/10 322/23/10 321/24/10
f 323/25/11 327/20/11 325/22/11 321/26/11
f 328/19/12 324/27/12 322/28/12 326/21/12
f 336/29/12 345/30/12 341/31/12 339/32/12
f 334/33/8 335/34/8 350/35/8 352/36/8 351/37/8 332/20/8
f 331/22/10 347/38/10 349/39/10 348/40/10 340/41/10 337/42/10
f 330/25/11 333/43/11 338/44/11 329/26/11
f 350/45/12 335/46/12 340/47/12 348/48/12
f 330/18/8 344/49/8 346/50/8 345/51/8 336/52/8 333/53/8
f 329/15/7 342/54/7 344/49/7 330/18/7
f 334/55/11 332/20/11 331/22/11 337/56/11
f 336/29/12 339/32/12 340/47/12 335/46/12
f 334/55/11 337/56/11 338/44/11 333/43/11
f 339/57/10 338/58/10 337/42/10 340/41/10
f 335/34/8 334/33/8 333/53/8 336/52/8
f 332/20/9 351/37/9 347/38/9 331/22/9
f 341/31/13 345/30/13 346/27/13 343/28/13
f 343/16/14 346/17/14 344/49/14 342/54/14
f 350/45/15 348/48/15 349/21/15 352/19/15
f 352/19/16 349/21/16 347/38/16 351/37/16
f 338/58/10 339/57/10 341/59/10 343/60/10 342/61/10 329/24/10
